<svg xmlns="http://www.w3.org/2000/svg" xmlns:xlink="http://www.w3.org/1999/xlink" viewBox="0 0 1863.01 1197.31"><defs><style>.cls-1{fill:#7646fd;}.cls-2{fill:#03b5f4;}.cls-3{fill:#92e1fe;}.cls-4{fill:url(#linear-gradient);}.cls-5{fill:#fd7646;}.cls-6{fill:#f27549;}.cls-7{fill:#fd895f;}.cls-8{fill:#d3c6be;}.cls-9{fill:#ede4db;}.cls-10{fill:#fdfefd;}.cls-11{fill:#4a2316;}.cls-12{fill:#978c87;}.cls-13{fill:#f7f9f7;}.cls-14{fill:#7a726e;}</style><linearGradient id="linear-gradient" x1="1039.77" y1="11.05" x2="492.58" y2="892.32" gradientTransform="matrix(-1, 0, 0, 1, 2474, 0)" gradientUnits="userSpaceOnUse"><stop offset="0" stop-color="#dae3fe"/><stop offset="1" stop-color="#e9effd"/></linearGradient></defs><title>OPWG1V4</title><g id="Layer_16" data-name="Layer 16"><path class="cls-1" d="M2038.07,1178.08,471.58,1147.66c-98.93-1.91-173.66,53.24-168.74,123.24l2.84,40.48c4.91,70,88.66,125.77,187.31,124.62l1561.91-18.15c66.92-.78,114.26-46.91,110.51-103.11l-2.16-32.51C2159.5,1226,2105.17,1179.38,2038.07,1178.08Z" transform="translate(-302.61 -238.7)"/></g><g id="Layer_8" data-name="Layer 8"><path class="cls-2" d="M1135.81,363.52a1.91,1.91,0,0,0,1.63-2.92c-1.34-2.2-2.73-4.37-4.14-6.53a1.92,1.92,0,0,0-3.21,2.11q2.1,3.19,4.08,6.43A1.93,1.93,0,0,0,1135.81,363.52Z" transform="translate(-302.61 -238.7)"/><path class="cls-2" d="M672.43,433a1.92,1.92,0,0,1-1.38-2.34c1.24-4.83,2.65-9.68,4.17-14.42a1.92,1.92,0,1,1,3.66,1.18c-1.5,4.66-2.89,9.44-4.11,14.2a1.94,1.94,0,0,1-1.86,1.44A2,2,0,0,1,672.43,433Zm12.38-37.07a1.92,1.92,0,0,1-1-2.52c2-4.58,4.11-9.15,6.36-13.6a1.92,1.92,0,1,1,3.42,1.73c-2.2,4.38-4.31,8.88-6.26,13.39a1.91,1.91,0,0,1-1.76,1.16A1.89,1.89,0,0,1,684.81,395.88Zm18-34.7a1.92,1.92,0,0,1-.6-2.65c2.65-4.22,5.46-8.41,8.36-12.47a1.92,1.92,0,0,1,3.12,2.24c-2.85,4-5.62,8.12-8.24,12.27a1.91,1.91,0,0,1-1.62.9A1.88,1.88,0,0,1,702.77,361.18ZM1116,336.77c-3.08-3.83-6.31-7.61-9.6-11.24a1.92,1.92,0,1,1,2.84-2.58c3.35,3.69,6.63,7.53,9.75,11.41a1.92,1.92,0,0,1-.29,2.7,2,2,0,0,1-1.2.42A1.91,1.91,0,0,1,1116,336.77Zm-390.14-7.16a1.93,1.93,0,0,1-.19-2.71c3.27-3.78,6.69-7.5,10.15-11a1.92,1.92,0,1,1,2.75,2.68c-3.41,3.5-6.77,7.16-10,10.89a1.9,1.9,0,0,1-1.45.66A2,2,0,0,1,725.81,329.61Zm363.58-21.1c-3.63-3.3-7.4-6.55-11.21-9.64a1.92,1.92,0,1,1,2.41-3c3.87,3.14,7.7,6.43,11.38,9.79a1.92,1.92,0,0,1,.13,2.71,1.94,1.94,0,0,1-1.42.63A1.88,1.88,0,0,1,1089.39,308.51Zm-336-6.6a1.91,1.91,0,0,1,.22-2.7c3.82-3.24,7.76-6.39,11.73-9.37a1.92,1.92,0,1,1,2.31,3.07c-3.91,2.94-7.8,6-11.56,9.22a1.9,1.9,0,0,1-2.7-.22Zm305.46-17.29c-4.09-2.72-8.31-5.36-12.55-7.84a1.92,1.92,0,1,1,1.94-3.31c4.3,2.51,8.58,5.19,12.74,8a1.92,1.92,0,0,1-1.07,3.51A1.86,1.86,0,0,1,1058.83,284.62Zm-274-5.83a1.91,1.91,0,0,1,.63-2.64c4.26-2.6,8.65-5.11,13-7.45a1.92,1.92,0,1,1,1.8,3.39c-4.32,2.31-8.64,4.77-12.83,7.33a2,2,0,0,1-1,.29A1.92,1.92,0,0,1,784.85,278.79ZM1025,265.66c-4.45-2.06-9-4-13.61-5.82a1.92,1.92,0,1,1,1.41-3.57c4.65,1.82,9.29,3.81,13.81,5.9a1.92,1.92,0,0,1-.81,3.66A1.89,1.89,0,0,1,1025,265.66Zm-205.47-4.87a1.92,1.92,0,0,1,1-2.51c4.58-1.91,9.3-3.71,14-5.35a1.92,1.92,0,1,1,1.26,3.62c-4.65,1.62-9.29,3.4-13.81,5.28a1.91,1.91,0,0,1-2.51-1Zm169.11-8.66c-4.71-1.35-9.54-2.57-14.33-3.64a1.92,1.92,0,1,1,.84-3.75c4.86,1.09,9.76,2.33,14.55,3.7a1.92,1.92,0,0,1-.53,3.77A1.67,1.67,0,0,1,988.63,252.13Zm-132.08-3.8A1.92,1.92,0,0,1,858,246c4.83-1.19,9.77-2.25,14.67-3.15a1.92,1.92,0,1,1,.7,3.77c-4.83.89-9.7,1.94-14.46,3.1a1.76,1.76,0,0,1-.46.06A1.93,1.93,0,0,1,856.55,248.33Zm94.08-4c-4.87-.61-9.82-1.08-14.72-1.4a1.92,1.92,0,0,1,.25-3.83c5,.33,10,.8,15,1.42a1.92,1.92,0,0,1-.24,3.83Zm-55.58-2.72a1.92,1.92,0,0,1,1.75-2.08c5-.43,10-.73,15-.87h.06a1.92,1.92,0,0,1,0,3.84c-4.91.15-9.88.44-14.76.87H897A1.92,1.92,0,0,1,895.05,241.66Z" transform="translate(-302.61 -238.7)"/><path class="cls-2" d="M666.89,464.39a1.91,1.91,0,0,0,1.9-1.67q.48-3.78,1.07-7.54a1.92,1.92,0,1,0-3.79-.6c-.4,2.55-.77,5.1-1.09,7.65a1.92,1.92,0,0,0,1.66,2.15Z" transform="translate(-302.61 -238.7)"/><path class="cls-2" d="M719.15,653.85a1.94,1.94,0,0,0,1.18-.41,1.92,1.92,0,0,0,.32-2.7q-2.35-3-4.62-6.06a1.92,1.92,0,0,0-3.09,2.28q2.31,3.1,4.69,6.15A1.92,1.92,0,0,0,719.15,653.85Z" transform="translate(-302.61 -238.7)"/><path class="cls-2" d="M918.22,749.09a1.93,1.93,0,0,1,1.91-1.93c5.16,0,10.39-.21,15.54-.55a1.92,1.92,0,1,1,.25,3.83c-5.23.35-10.54.54-15.77.56h0A1.92,1.92,0,0,1,918.22,749.09Zm-23.68.75c-5.21-.5-10.48-1.16-15.66-2a1.92,1.92,0,1,1,.6-3.8c5.1.81,10.29,1.47,15.42,2a1.92,1.92,0,0,1-.18,3.83Zm64.64-3.93a1.91,1.91,0,0,1,1.57-2.21c5.1-.85,10.23-1.87,15.25-3a1.92,1.92,0,0,1,.86,3.74c-5.09,1.18-10.3,2.21-15.47,3.07l-.32,0A1.91,1.91,0,0,1,959.18,745.91Zm-105.39-3.32c-5.07-1.34-10.17-2.85-15.14-4.5a1.92,1.92,0,1,1,1.21-3.64c4.9,1.62,9.91,3.11,14.9,4.42a1.92,1.92,0,0,1-.48,3.78A2,2,0,0,1,853.79,742.59Zm145.3-6.38a1.92,1.92,0,0,1,1.21-2.43c4.88-1.66,9.78-3.49,14.56-5.44a1.92,1.92,0,1,1,1.45,3.55c-4.85,2-9.83,3.84-14.78,5.52a2,2,0,0,1-.62.1A1.92,1.92,0,0,1,999.09,736.21Zm-184.35-7.38c-4.78-2.14-9.56-4.46-14.21-6.89a1.92,1.92,0,1,1,1.79-3.4c4.57,2.39,9.28,4.67,14,6.78a1.92,1.92,0,0,1-.79,3.67A2,2,0,0,1,814.74,728.83Zm222.18-8.61a1.91,1.91,0,0,1,.8-2.59c4.55-2.42,9.09-5,13.49-7.72a1.92,1.92,0,1,1,2,3.27c-4.46,2.74-9.07,5.38-13.69,7.84a2,2,0,0,1-.9.22A1.93,1.93,0,0,1,1036.92,720.22Zm-258.48-11.3c-4.37-2.88-8.72-5.94-12.92-9.08a1.93,1.93,0,0,1,2.31-3.08c4.13,3.11,8.42,6.12,12.72,9a1.92,1.92,0,0,1-1,3.53A2,2,0,0,1,778.44,708.92Zm293.22-10.59a1.92,1.92,0,0,1,.36-2.69c4.11-3.13,8.17-6.42,12.07-9.8a1.92,1.92,0,0,1,2.51,2.91c-4,3.42-8.08,6.77-12.25,9.94a1.88,1.88,0,0,1-1.16.4A1.91,1.91,0,0,1,1071.66,698.33ZM745.78,683.46c-3.86-3.54-7.66-7.25-11.29-11a1.92,1.92,0,1,1,2.76-2.67c3.58,3.72,7.33,7.37,11.13,10.86a1.92,1.92,0,0,1-1.3,3.33A2,2,0,0,1,745.78,683.46ZM1102.4,671.1a1.93,1.93,0,0,1-.07-2.72c3.52-3.73,7-7.64,10.33-11.61a1.92,1.92,0,1,1,2.94,2.46c-3.38,4-6.9,8-10.48,11.79a1.93,1.93,0,0,1-2.72.08Zm26-31.82a1.93,1.93,0,0,1-.51-2.67c2.91-4.27,5.72-8.68,8.35-13.11a1.92,1.92,0,1,1,3.3,2c-2.67,4.5-5.52,9-8.47,13.31a1.91,1.91,0,0,1-1.59.84A1.88,1.88,0,0,1,1128.39,639.28ZM1149,603.72a1.93,1.93,0,0,1-.93-2.55c2.18-4.68,4.25-9.49,6.13-14.29a1.92,1.92,0,0,1,3.57,1.41c-1.91,4.87-4,9.75-6.22,14.5a1.9,1.9,0,0,1-1.74,1.11A2,2,0,0,1,1149,603.72Zm14.55-38.42a1.92,1.92,0,0,1-1.33-2.36c1.4-5,2.65-10.05,3.73-15.09a1.92,1.92,0,1,1,3.75.8c-1.09,5.12-2.37,10.27-3.78,15.32a1.89,1.89,0,0,1-2.37,1.33Z" transform="translate(-302.61 -238.7)"/><path class="cls-2" d="M1171.87,525a1.92,1.92,0,0,0,1.91-1.71c.28-2.56.53-5.13.73-7.7a1.92,1.92,0,0,0-3.83-.3q-.3,3.78-.72,7.58a1.92,1.92,0,0,0,1.7,2.12Z" transform="translate(-302.61 -238.7)"/><path class="cls-2" d="M1107.52,441.91a3.07,3.07,0,0,0-2.47-2.54l-36.55-6.64a161.64,161.64,0,0,0-27.15-44.84l11-35.45a3,3,0,0,0-1.11-3.37l-35.91-26.36a3.05,3.05,0,0,0-3.54,0l-30.53,21.12a161.87,161.87,0,0,0-50.91-12.47l-17.29-32.87a3.08,3.08,0,0,0-3.17-1.6l-44,6.75a3.07,3.07,0,0,0-2.54,2.48l-6.64,36.54a161.84,161.84,0,0,0-44.85,27.15l-35.44-11a3.06,3.06,0,0,0-3.37,1.11l-26.37,35.92a3,3,0,0,0,0,3.54l21.12,30.52a161.86,161.86,0,0,0-12.47,50.92l-32.87,17.29a3,3,0,0,0-1.6,3.16l6.75,44a3,3,0,0,0,2.47,2.54l36.55,6.65a161.93,161.93,0,0,0,27.15,44.84l-11,35.45a3,3,0,0,0,1.11,3.36l35.91,26.37a3.07,3.07,0,0,0,3.55,0l30.52-21.13a161.86,161.86,0,0,0,50.92,12.47L922,688.73a3,3,0,0,0,3.16,1.59l44-6.75a3,3,0,0,0,2.54-2.47l6.65-36.55a161.93,161.93,0,0,0,44.84-27.15l35.45,11a3,3,0,0,0,3.36-1.11l26.37-35.91a3,3,0,0,0,0-3.54l-21.13-30.53a161.87,161.87,0,0,0,12.47-50.91l32.87-17.29a3,3,0,0,0,1.6-3.17Z" transform="translate(-302.61 -238.7)"/><path class="cls-3" d="M884.81,520.61A42.47,42.47,0,1,1,917.57,536,42.16,42.16,0,0,1,884.81,520.61Zm9.36-55.31a36.68,36.68,0,0,0,46.72,56.57h0a36.68,36.68,0,0,0-46.72-56.57Z" transform="translate(-302.61 -238.7)"/><path class="cls-2" d="M667.34,625.65a2,2,0,0,0,1-.28,1.93,1.93,0,0,0,.63-2.64c-1.37-2.23-2.86-4.41-4.44-6.49a1.92,1.92,0,1,0-3.06,2.31c1.5,2,2.92,4.07,4.23,6.19A1.9,1.9,0,0,0,667.34,625.65Z" transform="translate(-302.61 -238.7)"/><path class="cls-2" d="M528.77,627a1.91,1.91,0,0,1-.68-2.62,81.8,81.8,0,0,1,6.31-9.27q1.27-1.65,2.64-3.21a1.92,1.92,0,1,1,2.9,2.52c-.86,1-1.7,2-2.52,3a78.79,78.79,0,0,0-6,8.85,1.91,1.91,0,0,1-2.63.68Zm115.68-25a78.39,78.39,0,0,0-12.65-7.36,1.92,1.92,0,1,1,1.61-3.49,82.82,82.82,0,0,1,13.28,7.73,1.92,1.92,0,0,1-1.12,3.48A1.94,1.94,0,0,1,644.45,602Zm-89.07-3.62a1.91,1.91,0,0,1,.64-2.63A80.78,80.78,0,0,1,569.8,589a1.92,1.92,0,0,1,1.36,3.59A78,78,0,0,0,558,599a2,2,0,0,1-1,.28A1.92,1.92,0,0,1,555.38,598.39ZM609,588.1a78.76,78.76,0,0,0-14.63-.49,1.92,1.92,0,0,1-.24-3.84,83,83,0,0,1,15.35.52,1.92,1.92,0,0,1-.24,3.82Z" transform="translate(-302.61 -238.7)"/><path class="cls-2" d="M519.45,657.47a1.93,1.93,0,0,0,1.91-1.68c.31-2.47.75-4.95,1.3-7.38a1.92,1.92,0,0,0-3.75-.85c-.57,2.55-1,5.16-1.36,7.74a1.92,1.92,0,0,0,1.66,2.15Z" transform="translate(-302.61 -238.7)"/><path class="cls-2" d="M539.32,721.24a1.93,1.93,0,0,0,1.43-3.21c-1.66-1.84-3.26-3.8-4.74-5.8a1.92,1.92,0,0,0-3.09,2.28c1.56,2.1,3.23,4.15,5,6.09A1.94,1.94,0,0,0,539.32,721.24Z" transform="translate(-302.61 -238.7)"/><path class="cls-2" d="M594.36,747.73a1.92,1.92,0,0,1-1.81-2,2,2,0,0,1,2-1.81,78.55,78.55,0,0,0,14.38-.51,1.92,1.92,0,1,1,.49,3.8,82.15,82.15,0,0,1-10.5.68C597.42,747.85,595.89,747.81,594.36,747.73Zm-24-5a81.91,81.91,0,0,1-13.61-6.55,1.92,1.92,0,1,1,2-3.29,78,78,0,0,0,13,6.24,1.92,1.92,0,1,1-1.33,3.6Zm60.05-3.18a1.92,1.92,0,0,1,1-2.54,77.48,77.48,0,0,0,12.49-7.13,1.92,1.92,0,0,1,2.21,3.15A82.89,82.89,0,0,1,633,740.51a2,2,0,0,1-.79.17A1.92,1.92,0,0,1,630.45,739.55Zm30.68-23.07a1.92,1.92,0,0,1-.33-2.69,78.53,78.53,0,0,0,7.77-12.13,1.92,1.92,0,1,1,3.4,1.77,82.07,82.07,0,0,1-8.14,12.71,1.93,1.93,0,0,1-2.7.34Z" transform="translate(-302.61 -238.7)"/><path class="cls-2" d="M678,681.77a1.92,1.92,0,0,0,1.88-1.59c.46-2.56.8-5.18,1-7.79a1.92,1.92,0,1,0-3.83-.31c-.2,2.49-.52,5-1,7.43a1.93,1.93,0,0,0,1.56,2.23A2,2,0,0,0,678,681.77Z" transform="translate(-302.61 -238.7)"/><path class="cls-2" d="M658.42,649.06a1,1,0,0,0-.78-.8l-11.53-2.1A51.07,51.07,0,0,0,637.55,632L641,620.84a.93.93,0,0,0-.35-1.06l-11.32-8.31a1,1,0,0,0-1.12,0l-9.63,6.66a51,51,0,0,0-16.05-3.93l-5.46-10.37a1,1,0,0,0-1-.5l-13.89,2.13a.94.94,0,0,0-.8.78l-2.1,11.52a51,51,0,0,0-14.14,8.57L554,622.83a1,1,0,0,0-1.06.35l-8.32,11.33a1,1,0,0,0,0,1.12l6.66,9.62a50.88,50.88,0,0,0-3.93,16.06L537,666.76a1,1,0,0,0-.51,1l2.13,13.89a1,1,0,0,0,.78.8l11.53,2.1a51.07,51.07,0,0,0,8.56,14.14L556,709.87a1,1,0,0,0,.35,1.06l11.33,8.32a1,1,0,0,0,1.11,0l9.63-6.66a50.81,50.81,0,0,0,16.06,3.93l5.45,10.37a1,1,0,0,0,1,.5l13.89-2.13a1,1,0,0,0,.8-.77L617.69,713a51.22,51.22,0,0,0,14.15-8.56L643,707.88a1,1,0,0,0,1.06-.35l8.31-11.33a1,1,0,0,0,0-1.12l-6.67-9.62a51.1,51.1,0,0,0,3.94-16.06L660.05,664a1,1,0,0,0,.5-1Z" transform="translate(-302.61 -238.7)"/><path class="cls-3" d="M586.66,675.13a15.35,15.35,0,1,1,21.62,2.07h0a15.36,15.36,0,0,1-21.62-2.07Zm18-2.37a9.6,9.6,0,1,0-7,2.15,9.62,9.62,0,0,0,7-2.15Z" transform="translate(-302.61 -238.7)"/><path class="cls-3" d="M1719,1076.6s-4.3-180.83,79-229.23,241.64-78.65,247.58-338.3c3.47-152,7.23-218.47,9.76-247.45a17.12,17.12,0,0,0-20.22-18.33c-78.88,14.86-335.12,76-388.85,250.92C1582.59,701.56,1719,1076.6,1719,1076.6Z" transform="translate(-302.61 -238.7)"/><path class="cls-4" d="M1974.13,315.53c-86.59,77.23-186.71,213.89-240.07,350.56-6.85,22.52-26.89,70.42-35.59,155.53-7.77,71-3.91,146,5.51,195.63a5.79,5.79,0,0,0,6.77,4.6c5.39-1,4.68-6.83,4.63-6.64-10.76-84.83-6.3-190.41,18.36-285.67,31.51-117,101.78-230.38,174.46-326.57l7.48-9.47c56.31-72.31,68.17-72.85,62.9-77.89A3.29,3.29,0,0,0,1974.13,315.53Z" transform="translate(-302.61 -238.7)"/><path class="cls-2" d="M1799.57,849.2c8.15-54.92,17.8-124.72,62.94-163,52.6-44.58,231.61-16.43,290.18-5.74a8.79,8.79,0,0,1,4.09,15.37c-28.09,23.59-88.18,79.23-103.83,135.31C2038.61,882.51,1999,923,1952.06,946.4c-25.61,12.79-45,10.91-71.38,15.43-31.94,5.46-60,24.48-93,26C1787.24,941.14,1792.67,895.48,1799.57,849.2Z" transform="translate(-302.61 -238.7)"/><path class="cls-3" d="M2070.31,711.7c-74.72,3.13-154.94,37.22-195.64,101.16l-3.84,6.1c-8.88,14.31-59.17,116-87.1,200.32a2,2,0,0,0,1.27,2.54,2,2,0,0,0,2.51-1.2c19.46-47.63,47.41-108,69.67-153.17,23.88-49.27,40.58-82.64,95-114.61,60.61-34.42,118.51-38,118.33-37.93a1.61,1.61,0,0,0-.23-3.21Z" transform="translate(-302.61 -238.7)"/></g><g id="Layer_14" data-name="Layer 14"><path class="cls-5" d="M405.08,859.72l7.58-29.81A28.51,28.51,0,0,1,446,809L1160.13,954.7a29.91,29.91,0,0,1,23.28,35.49l-43.53,206.38Z" transform="translate(-302.61 -238.7)"/><path class="cls-3" d="M337.37,1221.74l53.71-386a13.81,13.81,0,0,1,16.67-11.57L1141.22,987a28.85,28.85,0,0,1,21.87,34.66l-61.55,266.85Z" transform="translate(-302.61 -238.7)"/><path class="cls-2" d="M356.74,1204.25l20.57-344.56a14.53,14.53,0,0,1,17.5-13.34L1136,1003.19a20.07,20.07,0,0,1,15.67,22.77l-39.48,248.91Z" transform="translate(-302.61 -238.7)"/><path class="cls-5" d="M303.05,1285.7l46.66-373.22A32.5,32.5,0,0,1,388,884.58L1148,1028a28.39,28.39,0,0,1,22.64,33.17l-64.19,340.1a30.74,30.74,0,0,1-34.26,24.77l-736.8-98.4A37.64,37.64,0,0,1,303.05,1285.7Z" transform="translate(-302.61 -238.7)"/><path class="cls-5" d="M655.43,935.05h0a29.16,29.16,0,0,1-34.08,23.26l-169.46-32a29.17,29.17,0,0,1-23.26-34.08h0A29.17,29.17,0,0,1,462.71,869l169.46,32A29.17,29.17,0,0,1,655.43,935.05Z" transform="translate(-302.61 -238.7)"/></g><g id="Layer_12" data-name="Layer 12"><path class="cls-6" d="M1915.12,871.83c134.26,141.87,85.7,392.82-127.43,464.15-51.77,17.33-102.87,35.38-158.39,20.41-11.63-3.14-27.38-6.77-23.93-22.48,2.66-12.1,15.26-2.1,22.84-1.88,124.42,3.58,235.71-83.26,248.59-195,.78-6.8.1-13.77.1-21.44-1.37,1.15-2.6,1.67-3,2.54-28,68.19-86.29,62.17-143.6,58.89-9.67-.55-2.09-7.09-4.17-10.17-1.9-5.28,1.36-8.38,5.14-10.65,7.2-4.31,14.56-8.45,23.33-8.59,9.21-1.13,18.36-2.8,27.72-2.9s10.31-1.36,10.52-10.84c0-1.46-.09-2.92,0-4.37.39-6.06-1.49-10.14-8.32-10.85-3.14-.32-6.09-2-9.32-2.22-25.78-3.48-47.85-15-67.74-31.2-29.77-24.24-46.75-55.71-52.85-93.38-1-5.84-.7-11.69-1-17.54-.45-10.27-3-13.41-13.16-13.41-23.45,0-46.82-2.06-70.28-2.22-26.64-.18-53.26.29-79.88.38-21.37.08-42.69,1.91-64,3.5-4.9.36-8.11,2.49-10.16,7-5.69,12.55-12.92,24.37-17.79,37.31a23.85,23.85,0,0,1-9.94,11.85c-20.11,46.12-44.41,89.87-56,140.3-6.24,27-38.21,2.09-58,6.8-1.73.41-7.67-6.29-7.19-8.85,3-16.12,14.07-21,29.69-20.34,10.84.49,6.3-9.68,6.78-14.54,2.25-22.87,20.25-46.19-.91-68.72a22.91,22.91,0,0,1-9.56-10c-26.88-52.4-50.34-106.16-64.49-163.59a22.88,22.88,0,0,1-.75-8.66,14.87,14.87,0,0,1,1.55-3.84,5.79,5.79,0,0,1,3.25-2.32,8,8,0,0,1,2.58-.12c2.39.51,4.42,2.08,6.89,2.36a14.9,14.9,0,0,1,2.26.64c1.44.51,2.81,1.23,4.3,1.67s3.18.53,4.8.73a14.57,14.57,0,0,1,4,.91c26.11,7.89,52.28,15.49,78.75,22.05,43.33,10.73,87.28,17.66,131.59,22.93,57.31,6.82,114.88,6.7,172.21,4.27a952.28,952.28,0,0,0,233.48-39.74c8.44-2.53,16.73-5.44,25.06-8.28C1904.12,870.57,1909.6,869.74,1915.12,871.83Z" transform="translate(-302.61 -238.7)"/><path class="cls-7" d="M1915.12,871.83c-220.08,72-440.37,73.11-660.86,1.89a2.43,2.43,0,0,0-3.2.08l-3.85-1.41c-.67-1.6-2.64-.82-3.58-1.94l.21.1c-2.79-1.75-6.16-2.08-9-3.67l.2.14a2.36,2.36,0,0,0-3.6-.1c-.09,1.27-.17,2.53-.26,3.8-3.49-.44-4.25-3-4.57-5.89-5.16-19.23-5.3-39.12-7.5-58.72-.64-5.65-2.61-12.37,3.7-16.83,9.21,3.5,19.47,5.41,27.46,10.73,62.73,41.78,124.73-2,187-2.31,143.68-.61,287.51-8.66,426.44,38.09C1882.74,842.2,1898.08,859.55,1915.12,871.83Z" transform="translate(-302.61 -238.7)"/><path class="cls-8" d="M1388.5,1018.73c12.15-67.75,63-65.84,114.35-64.06,48.9,1.69,97.85,2.16,146.76,3.54,2.46.07,6.86,3.61,6.92,5.63,2.4,79.91,42.69,129.39,119.48,149.87,2.89,3.09,2.75,6.82.22,9.45-8.2,8.51-13.58,19.27-22.31,27.3l-27.75,16.38c-26.81.94-53.61,2.19-80.43,2.62-6.57.1-13.17-2.46-19.76-3.8,3.54-11.21,11.82-17.51,22.66-20.09,5.29-1.26,11.19.24,16.66-.55,13.43-1.93,32.44,7,38.88-9.35,10.68-27-10.84-28.2-30-33-45.24-11.36-76.43-38.88-98.27-81.66-11.47-22.45-41-8.52-61.82-8.61C1472.2,1012.19,1430.35,1016.36,1388.5,1018.73Z" transform="translate(-302.61 -238.7)"/><path class="cls-8" d="M1229.74,865.19q.72,2.76,1.43,5.53c13.9,64.81,41.71,124.15,71.67,182.66-22,14.24-59.18,12.28-56,53.56.5,6.54-3.78,13.93-7.44,20-.91,1.51-9.5.88-11.94-1.48-10.25-9.89-12-22.18-11.37-36.61,1.45-30.84,25.61-43.09,43.74-61.54,14.15-14.39-6.93-20.92-13.93-27.71-29.31-28.4-57.29-60.15-91.73-80.61-25.15-15-59.72-13.81-89.89-20.71-7.45-1.7-14.12-6.77-21.14-10.29,2-3.85,5.7-3.54,9.15-3.65a54.49,54.49,0,0,0,12.93-1.7c5.53-1.54,8.5-5.19,8.81-10.6.33-5.82,2.63-12.13-4.24-16.55-3.71-2.38-8.94-3.52-10-9a4.29,4.29,0,0,1,1.73-3.15c2.48-1.62,5.08-.48,8-.28-.89-2.7-4-3.42-4.77-5.86a8.51,8.51,0,0,1-.91-3.46c-.17-2.72-2.36-3.7-4.22-5.05-2.35-1.71-5-3.51-2-6.86,10.8-.49,20.59,3.25,28.07,6.08-7.86-3.93-18.84-5.67-29.89-7-.35,0,.44,2.8-1.17,3.73-4.35,3.18-9.34,1.25-14,1.76-3.43,0-6.86-1.54-10.33-.09a8,8,0,0,1-5.08-.24c-3.82-1.76-6.61-3.93-3.33-8.47,21.23-18.42,27.69-51.76,59.8-59.19,8.16,3,13.34,10.07,20.19,14.86,9.61,6.72,17.05,16.87,29.63,18.94,3.74,6.09,7.61,12,14.75,14.75a9.64,9.64,0,0,1,1.51,2c9,8.3,19.64,14.24,29.62,21.1,14.37,9.87,28.86,19.62,44.62,27.24A17.7,17.7,0,0,1,1229.74,865.19Z" transform="translate(-302.61 -238.7)"/><path class="cls-9" d="M1130.74,792.88c-17.57,4.65-22.49-13.13-33.85-19.49-6-3.36-10.23-9.91-15.25-15,53.34-18.42,99.46-3.86,141.16,30.91q3.48,38,6.94,75.91c-30.59-14.65-59.15-32.43-84.56-55,2.74-2.74,6.39-2.37,9.79-2.9,8.52-1.3,12.65-8.87,9.15-16.71-4.34-9.71-16.51-11.61-24.2-3.76C1137,789.08,1135.35,793.2,1130.74,792.88Z" transform="translate(-302.61 -238.7)"/><path class="cls-10" d="M1060.52,845.94c13.62,5.39,23.22,13.68,17.27,29.78-6.38,17.27-22.15,10.75-34.66,12.24-28.46-3.07-40.55-19.1-37.36-47.22.19-.22.45-.66.57-.63,10.27,3.12,19.38-2.11,28.93-4,.78,0,1.56-.05,2.33-.1,2.65.13,5.09,1.25,7.67,1.71a10.59,10.59,0,0,1,2.18.2c1.77.39,3.46,1,5.2,1.54a9.24,9.24,0,0,1,2.15.45,18.07,18.07,0,0,1,4,2.09,5.86,5.86,0,0,1,1.45,1.72A8.52,8.52,0,0,1,1060.52,845.94Z" transform="translate(-302.61 -238.7)"/><path class="cls-11" d="M1037.82,838.8c-10.62,1.58-20.59,14.08-32,1.94-7.51-12,4.79-18.47,7.59-27.6l8.48,4.43q2.5,3.4,5,6.83c1.08,2.94,3.34,2.56,5.78,2.25,4.64-.58,9.33-.27,14-.2,3.32,0,6.5.58,7.25,4.72-2,4.45-5.93,4-9.74,4.05C1041.39,835.25,1037.94,834.15,1037.82,838.8Z" transform="translate(-302.61 -238.7)"/><path class="cls-8" d="M1234.83,866.88l9,3.67Z" transform="translate(-302.61 -238.7)"/><path class="cls-8" d="M1243.63,870.45l3.58,1.94Z" transform="translate(-302.61 -238.7)"/><path class="cls-8" d="M1251.06,873.8l3.2-.08Z" transform="translate(-302.61 -238.7)"/><path class="cls-8" d="M1231.43,866.92l3.6.1Z" transform="translate(-302.61 -238.7)"/><path class="cls-11" d="M1130.74,792.88q2.82-4.35,5.65-8.68c10.2-5.92,22.5-3.75,26.68,5,2.37,4.95,2.63,10.19-.82,14.91-4.42,6-10.54,6.58-17.22,4.86C1135.31,808,1129.7,803.39,1130.74,792.88Z" transform="translate(-302.61 -238.7)"/><path class="cls-10" d="M1037.82,838.8c-4.22-2.61-37.43-6.25.26-7.35,5.2-.15,10.41.08,15.61.14l1.14-.33a18.75,18.75,0,0,1,5.93-.35,7.25,7.25,0,0,1,2.33.58,5.75,5.75,0,0,1,2.72,3.84l18.69,7.27q-3.81,3.93-7.64,7.85l-14.77-6.26a2.37,2.37,0,0,1-3.39-.3l.29.21c-1.49-1.71-4.11-.22-5.59-2l.28.16c-2.09-2-5.29.17-7.37-1.91l.31.17c-2.68-2.29-6.41.35-9.1-1.92Z" transform="translate(-302.61 -238.7)"/><path class="cls-12" d="M1145,809c4.89-2,11.86-2.66,14.09-6.27s1.22-13.49-1.21-14.65c-6.34-3-14.24-2.78-21.52-3.84,7.86-9.12,17.69-6.57,25.22-1.47,4.23,2.87,7.59,11.86,6.4,16.92-2.68,11.31-12.85,12-22.83,10.51A4.81,4.81,0,0,0,1145,809Z" transform="translate(-302.61 -238.7)"/><path class="cls-13" d="M1053.69,831.59c-9-.52-18-.53-26.87-1.79-4.14-.58-5.73-3.57,0-5.4l3.83-1.41c2.11-1.64,4.36-1.1,6.62-.42l18.23-.05a1.17,1.17,0,0,1,1.53.41l10.14,10.81c-1.73.71-3.42,1-5-.4l.32.19c-2.7-2.3-6.44.35-9.14-1.93Z" transform="translate(-302.61 -238.7)"/><path class="cls-11" d="M1099.09,795.11c-6.64,4.3-10.35,8.6-13.32,8.14-3.33-.53-6-5.36-8.94-8.31,3-3,5.71-7.81,9.05-8.3C1088.85,786.21,1092.52,790.64,1099.09,795.11Z" transform="translate(-302.61 -238.7)"/><path class="cls-14" d="M1057,822.93a4.51,4.51,0,0,0-1.53-.41l-10.89-3.06c23,0,41.38,4.67,56.27,14.8Z" transform="translate(-302.61 -238.7)"/><path class="cls-6" d="M1037.28,822.57l-6.62.42Z" transform="translate(-302.61 -238.7)"/><path class="cls-6" d="M1062.19,833.34l5,.4-1.37,1.59Z" transform="translate(-302.61 -238.7)"/><path class="cls-6" d="M1058.7,843.89l3.39.3c-.52.58-1,1.17-1.57,1.75Z" transform="translate(-302.61 -238.7)"/><path class="cls-6" d="M1037.52,838.65l9.1,1.92Z" transform="translate(-302.61 -238.7)"/><path class="cls-6" d="M1046.31,840.4l7.37,1.91Z" transform="translate(-302.61 -238.7)"/><path class="cls-6" d="M1053.4,842.15l5.59,2Z" transform="translate(-302.61 -238.7)"/><path class="cls-6" d="M1053.37,831.6l9.14,1.93Z" transform="translate(-302.61 -238.7)"/></g></svg>