<svg xmlns="http://www.w3.org/2000/svg" viewBox="0 0 243.12 342.38"><defs><style>.cls-1,.cls-2{fill:#46ccfc;}.cls-2{stroke:#46ccfc;stroke-miterlimit:10;stroke-width:13px;}</style></defs><title>logov3</title><g id="Layer_11" data-name="Layer 11"><path class="cls-1" d="M5236.27,6959.27c-1.48-2.17-3.11-2.05-5.16-.85-2.31,1.35-4.67,2.69-7.46,2.83-2.45.12-3.6-.92-2.9-3.41.57-2.07,1.39-4.08,1.87-6.17.63-2.74,1.54-5.82-1.7-7.53-3.06-1.63-5.95-.79-8.46,1.6-4,3.85-6.95,8.51-9.79,13.24-1.15,1.91-2.29,3.84-3.43,5.76a119.57,119.57,0,0,1,2.85-16c.47-2,.49-3.84-1.49-4.94a4.85,4.85,0,0,0-5.64.72c-1.89,1.49-2.68,3.68-3.3,5.88-1.33,4.79-2.83,9.63-2.85,14.58,0,5.76-3.45,8.59-7.78,11.05a23.6,23.6,0,0,1-8.64,3.22c-4.11.51-8.36,1.16-12-1.85-.91-.77-2-1.68-1.71-3s1.74-1.05,2.72-1.31c5.74-1.53,11.39-3.28,16-7.22s6.42-10.9,4.11-16.08c-2.08-4.67-7.67-7.24-14-6.46-9,1.12-17.82,10.13-19.6,21-1.35,8.29-7.36,11.72-13.88,14.61-3.85,1.71-6.27.05-7.57-4.13-1.09-3.53-.73-7.18-.9-10.8-.13-3,.94-4.62,3.85-5.6,5.47-1.85,10.81-4.1,16.51-5.19,2.09-.4,3.6-1.26,3.05-3.76-.49-2.25-2-3.1-4.17-2.73-1.72.29-3.43.66-5.12,1.09s-3.63,1-5.44,1.57l-.66-1.11a77.78,77.78,0,0,0,6-5.33c7.06-7.7,13.17-16,15.1-26.6.82-4.46.93-8.9-3.37-11.55-4.13-2.54-8.58-1.83-12.55.83a32.94,32.94,0,0,0-10.49,12,105.48,105.48,0,0,0-10.84,32.32c-.69,3.91-1,7.67-5.74,9-1.88.52-2.15,2.3-1.73,4s1.63,2.87,3.54,2.41c1.39-.33,2.43-.54,2.23,1.39-.12,1.16.66,3-1.78,2.56-2-.34-3.17,1-4.41,2.29-3,3.12-6.2,6-10.42,7.37s-6.39.16-7.7-4-.79-8.24-.85-12.39c0-2.15,1-3.11,2.8-3.79,5.54-2.06,11-4.28,16.84-5.48,2-.41,4.23-.75,3.73-3.65s-2.71-3.4-5.2-2.84c-3.2.71-6.36,1.56-9.54,2.36a14.78,14.78,0,0,1,3.81-4.81,68.84,68.84,0,0,0,11.17-14.22c3.39-5.73,5.81-11.82,5.59-18.65-.14-4.73-3.1-7.65-7.81-8.07-4.35-.4-7.86,1.33-11,4.13a36.82,36.82,0,0,0-7.93,10.09,98.36,98.36,0,0,0-10.64,32c-.76,5.24-2.6,8.71-7.73,10.15-.53,2.9-.34,5.75,3.46,5.5,2.34-.15,2.39.63,2.4,2.3a36,36,0,0,0,1.79,11.5c2.3,6.66,7,9.68,13.87,9a23.53,23.53,0,0,0,12.5-5.14c2.59-2,5-4.31,7.66-6.66.37.82.69,1.39.9,2,2.88,8.21,7.91,11.11,16.49,9.44a26.17,26.17,0,0,0,12.92-7.05c1.57-1.48,2.26-1.5,3.6.37,3.61,5,8.87,7.22,14.94,7.48a31.85,31.85,0,0,0,17.66-4.72c1.58-.93,2.9-2.38,5-2.72.5,3.23,1.26,6.34,5.23,6.58,4.16.26,5.9-2.48,7-6,.36-1.15.85-2.26,1.3-3.38,3.21-7.8,6.53-15.53,11.38-22.53a20,20,0,0,1-.58,4.34c-1.51,6.46,1.27,10,8,10.23,5.89.18,10.6-2.49,15-6C5237,6963,5237.76,6961.44,5236.27,6959.27Zm-96.81-41.89a6.42,6.42,0,0,1,1.17-1.1c1.21-.87,2.54-1.93,4-1.27,1.73.78,1.1,2.6.92,3.95-.71,5.48-3.31,10.23-6.53,14.53s-6.86,8.07-10.32,12.08C5129.67,6935,5132.71,6925.41,5139.46,6917.38Zm-36.09,1c1.52-2,3.62-4.56,6.23-3.2,2.39,1.24.87,4.21.32,6.27a34.22,34.22,0,0,1-6.58,12.76c-3.1,3.8-6.4,7.44-9.61,11.15l-1-.56C5094.37,6935.26,5097.33,6926.2,5103.37,6918.4Zm54.29,46.33c1.35-5.2,4.16-9.89,9.79-12.3,2.2-.94,4.61-1,6.18,1.2s.5,4.42-1.11,6.16c-3.58,3.84-8.38,5.64-13.16,7.4C5157.33,6967.94,5157.55,6966.5,5157.66,6964.73Z" transform="translate(-4993.95 -6659.5)"/><path class="cls-1" d="M5074.64,6959.83l.07,0a.43.43,0,0,0,0-.11Z" transform="translate(-4993.95 -6659.5)"/><path class="cls-1" d="M5072,6918.64c-4.14-11-11.47-18.89-23.57-20.73-13.2-2-25.23,1.05-34.81,10.72-18.44,18.62-22.95,41.42-17.55,66.14,3.62,16.59,15.16,26.22,29.56,27,15.9.9,28.32-5.59,37.72-18.27,5.35-7.21,8.26-15.56,11.37-23.83,0,0-.09.13-.09.14-.36-1.49.19-2.9.42-4.35C5077.08,6943,5076.52,6930.58,5072,6918.64Zm-8.09,21.37c-.38,14.2-2.87,27.77-12,39.3-4.36,5.51-9.69,9.63-16.74,11.16-10.74,2.32-19.53-1.69-24.55-11.44-6.16-11.95-5.2-24.45-2.38-37a50.29,50.29,0,0,1,15.45-26.79,27.14,27.14,0,0,1,17.42-7.43c7.36-.31,13.36,2.42,17.29,8.95C5062.71,6924,5064.05,6931.79,5063.92,6940Z" transform="translate(-4993.95 -6659.5)"/><path class="cls-2" d="M4995.18,7025.89" transform="translate(-4993.95 -6659.5)"/></g><g id="Layer_1" data-name="Layer 1"><path class="cls-1" d="M5167.24,6765c0-13.68,0-27.36,0-41a5.73,5.73,0,0,1,1.26-4,22.72,22.72,0,0,0,4.42-10.4c1-5.75-2.74-10.12-7.67-8.46-3.17,1.07-4.43.16-5.91-3.27-5.76-13.38-16.22-20-28.3-22.27-19.54-3.59-39.23-5-58,4.79a34.67,34.67,0,0,0-16.82,19.16c-.74,2-1.52,2.7-3.43,2-2.84-1.12-5.74-1.58-8,1.48s-1.5,6.29-.64,9.52a26.43,26.43,0,0,0,1.87,4.47c3,6.15,3.25,8.86,3.24,13.85-.05,25.13,0,126,0,151.13h0a3,3,0,0,1-3,3l-6-.05a3,3,0,0,1-2.95-3c0-28.15,0-130.45,0-152.57a10.05,10.05,0,0,0-1.18-4.95c-6.76-12.71-6.18-24.18,1.52-32.24a13,13,0,0,1,7.27-4.17c2.78-.44,4.41-2.1,6.12-4.53,8.92-12.71,20.95-19.69,34.67-21.79,18-2.75,36.1-3.8,53.81,2.37a52.14,52.14,0,0,1,27.42,21.82,3.1,3.1,0,0,0,1.4,1.34c15,4.61,20.58,16.56,13.9,32.11-2.82,6.59-3.34,12.89-3.32,19.75.06,22.33.34,165.61.42,187.94h0a3,3,0,0,1-3.05,3.11l-5.73,0h-.05a2.94,2.94,0,0,1-2.94-2.93C5167.56,6902.62,5167.24,6775.12,5167.24,6765Z" transform="translate(-4993.95 -6659.5)"/><path class="cls-1" d="M5149.37,6710.67a9.74,9.74,0,0,1-.17,1.53c-.74,3.06-1.6,6.28-5.42,6.5s-4.84-2.87-5.7-5.82a10.12,10.12,0,0,1-.38-2.62c-.1-4.87,2.62-9,5.85-9S5149.47,6705.35,5149.37,6710.67Z" transform="translate(-4993.95 -6659.5)"/><path class="cls-1" d="M5078.55,6710.26a11.5,11.5,0,0,1-.11,1.45c-.67,3.24-1.44,6.72-5.48,7s-5-3.16-5.85-6.25a9.19,9.19,0,0,1-.26-2.16c-.1-4.8,2.65-9,5.85-9S5078.63,6705.33,5078.55,6710.26Z" transform="translate(-4993.95 -6659.5)"/><path class="cls-1" d="M5122.92,6735c-3.35-2.39-7.27-3.16-11.22-3.44-5.17-.37-10.35-.24-15.27,1.8a11.05,11.05,0,0,0-3.93,2.34c-1.71,1.79-1.38,3.54,1,4.57a16.63,16.63,0,0,0,7.58,1.35c3.75-.17,6.56,2.75,7.44,5.68a7.09,7.09,0,0,1,6.82-5.63,22.16,22.16,0,0,0,6.69-.87c1.33-.45,2.67-1.06,2.86-2.64S5124,6735.78,5122.92,6735Z" transform="translate(-4993.95 -6659.5)"/><path class="cls-1" d="M5146.7,6731.67q-11.65-9.87-23.78-19.17c-9.27-7.13-20.8-7-30,.28q-11.79,9.31-23.34,18.93c-13.51,11.32-10.52,31.56,5.84,38.25,10.63,4.34,20.95,1.53,30.9-3,1.16-.53,2-.89,3.33-.2a43.6,43.6,0,0,0,18.55,5.14c13.17.18,21.9-5.57,25.67-15.3C5157.37,6747.62,5155,6738.69,5146.7,6731.67Zm-3.86,20.84c-1.74,4.86-6.44,7.83-12,7.76a34.23,34.23,0,0,1-21.74-8,3.08,3.08,0,0,1-.82-1.06,3.58,3.58,0,0,1-.25.42,4,4,0,0,1-.52.61,32.44,32.44,0,0,1-24.93,7.71c-4.88-.46-8-3.63-9.42-8.27s.28-8.15,3.95-11.07c6.39-5.07,12.7-10.23,19-15.4,10.36-8.46,13.47-8.52,23.75-.24,6.22,5,12.32,10.2,18.64,15.1C5142.78,6743.38,5144.73,6747.25,5142.84,6752.51Z" transform="translate(-4993.95 -6659.5)"/></g><g id="Layer_2" data-name="Layer 2"><path class="cls-1" d="M5136.57,6797h-56.9a17.06,17.06,0,0,0-17.06,17.07v25.6a45.52,45.52,0,1,0,91,0V6814A17.07,17.07,0,0,0,5136.57,6797Zm5.69,42.67a34.13,34.13,0,0,1-34.14,34.14h0a34.14,34.14,0,0,1-34.14-34.14V6814a5.69,5.69,0,0,1,5.69-5.69h56.9a5.68,5.68,0,0,1,5.69,5.69Z" transform="translate(-4993.95 -6659.5)"/><path class="cls-1" d="M5108.12,6840.13l-17.07-17.07-8.05,8,21.1,21.09a5.69,5.69,0,0,0,8,0h0l21.09-21.09-8.05-8Z" transform="translate(-4993.95 -6659.5)"/></g></svg>