<svg xmlns="http://www.w3.org/2000/svg" viewBox="0 0 153.59 225.66"><defs><style>.cls-1{fill:#46ccfc;}</style></defs><title>logov2</title><g id="Layer_1" data-name="Layer 1"><path class="cls-1" d="M5167.24,6765c0-13.68,0-27.36,0-41a5.73,5.73,0,0,1,1.26-4,22.72,22.72,0,0,0,4.42-10.4c1-5.75-2.74-10.12-7.67-8.46-3.17,1.07-4.43.16-5.91-3.27-5.76-13.38-16.22-20-28.3-22.27-19.54-3.59-39.23-5-58,4.79a34.67,34.67,0,0,0-16.82,19.16c-.74,2-1.52,2.7-3.43,2-2.84-1.12-5.74-1.58-8,1.48s-1.5,6.29-.64,9.52a26.43,26.43,0,0,0,1.87,4.47c3,6.15,3.25,8.86,3.24,13.85-.05,25.13,0,126,0,151.13h0a3,3,0,0,1-3,3l-6-.05a3,3,0,0,1-2.95-3c0-28.15,0-130.45,0-152.57a10.05,10.05,0,0,0-1.18-4.95c-6.76-12.71-6.18-24.18,1.52-32.24a13,13,0,0,1,7.27-4.17c2.78-.44,4.41-2.1,6.12-4.53,8.92-12.71,20.95-19.69,34.67-21.79,18-2.75,36.1-3.8,53.81,2.37a52.14,52.14,0,0,1,27.42,21.82,3.1,3.1,0,0,0,1.4,1.34c15,4.61,20.58,16.56,13.9,32.11-2.82,6.59-3.34,12.89-3.32,19.75.06,22.33,0,120.41.06,142.74h0a3,3,0,0,1-3.05,3.12l-5.72,0h-.05a2.93,2.93,0,0,1-2.94-2.93C5167.21,6857.42,5167.24,6775.12,5167.24,6765Z" transform="translate(-5031.43 -6659.5)"/><path class="cls-1" d="M5149.37,6710.67a9.74,9.74,0,0,1-.17,1.53c-.74,3.06-1.6,6.28-5.42,6.5s-4.84-2.87-5.7-5.82a10.12,10.12,0,0,1-.38-2.62c-.1-4.87,2.62-9,5.85-9S5149.47,6705.35,5149.37,6710.67Z" transform="translate(-5031.43 -6659.5)"/><path class="cls-1" d="M5078.55,6710.26a11.5,11.5,0,0,1-.11,1.45c-.67,3.24-1.44,6.72-5.48,7s-5-3.16-5.85-6.25a9.19,9.19,0,0,1-.26-2.16c-.1-4.8,2.65-9,5.85-9S5078.63,6705.33,5078.55,6710.26Z" transform="translate(-5031.43 -6659.5)"/><path class="cls-1" d="M5122.92,6735c-3.35-2.39-7.27-3.16-11.22-3.44-5.17-.37-10.35-.24-15.27,1.8a11.05,11.05,0,0,0-3.93,2.34c-1.71,1.79-1.38,3.54,1,4.57a16.63,16.63,0,0,0,7.58,1.35c3.75-.17,6.56,2.75,7.44,5.68a7.09,7.09,0,0,1,6.82-5.63,22.16,22.16,0,0,0,6.69-.87c1.33-.45,2.67-1.06,2.86-2.64S5124,6735.78,5122.92,6735Z" transform="translate(-5031.43 -6659.5)"/><path class="cls-1" d="M5146.7,6731.67q-11.65-9.87-23.78-19.17c-9.27-7.13-20.8-7-30,.28q-11.79,9.31-23.34,18.93c-13.51,11.32-10.52,31.56,5.84,38.25,10.63,4.34,20.95,1.53,30.9-3,1.16-.53,2-.89,3.33-.2a43.6,43.6,0,0,0,18.55,5.14c13.17.18,21.9-5.57,25.67-15.3C5157.37,6747.62,5155,6738.69,5146.7,6731.67Zm-3.86,20.84c-1.74,4.86-6.44,7.83-12,7.76a34.23,34.23,0,0,1-21.74-8,3.08,3.08,0,0,1-.82-1.06,3.58,3.58,0,0,1-.25.42,4,4,0,0,1-.52.61,32.44,32.44,0,0,1-24.93,7.71c-4.88-.46-8-3.63-9.42-8.27s.28-8.15,3.95-11.07c6.39-5.07,12.7-10.23,19-15.4,10.36-8.46,13.47-8.52,23.75-.24,6.22,5,12.32,10.2,18.64,15.1C5142.78,6743.38,5144.73,6747.25,5142.84,6752.51Z" transform="translate(-5031.43 -6659.5)"/></g><g id="Layer_2" data-name="Layer 2"><path class="cls-1" d="M5136.57,6797h-56.9a17.06,17.06,0,0,0-17.06,17.07v25.6a45.52,45.52,0,1,0,91,0V6814A17.07,17.07,0,0,0,5136.57,6797Zm5.69,42.67a34.13,34.13,0,0,1-34.14,34.14h0a34.14,34.14,0,0,1-34.14-34.14V6814a5.69,5.69,0,0,1,5.69-5.69h56.9a5.68,5.68,0,0,1,5.69,5.69Z" transform="translate(-5031.43 -6659.5)"/><path class="cls-1" d="M5108.12,6840.13l-17.07-17.07-8.05,8,21.1,21.09a5.69,5.69,0,0,0,8,0h0l21.09-21.09-8.05-8Z" transform="translate(-5031.43 -6659.5)"/></g></svg>