<svg xmlns="http://www.w3.org/2000/svg" viewBox="0 0 696.97 402.22"><defs><style>.cls-1,.cls-2{fill:#46ccfc;}.cls-2{stroke:#46ccfc;stroke-miterlimit:10;stroke-width:13px;}</style></defs><title>logo</title><g id="Layer_3" data-name="Layer 3"><path class="cls-1" d="M5449.19,6951.89c1-5.31,1.11-10.68-3.95-14s-10.57-2.51-15.56.68c-5.75,3.67-9.89,8.89-13.13,14.8-6.87,12.54-11.06,26.05-13.59,40.05-.91,5-1.26,9.82-7.3,11.53-2.36.67-2.46,3-1.95,5.05a3.64,3.64,0,0,0,4,3c1,0,2.78-1.82,3,.74.13,1.69.83,3.59-1,5.06-6,4.83-12,9.72-19.84,11.06-5.08.87-10.31,1.57-15-1.7-1.36-.95-2.92-2.16-2.69-3.94s2.34-1.53,3.67-1.9c7.11-1.94,14.11-4.14,19.81-9.1s7.65-13.22,4.92-19.56c-2.53-5.88-9.38-9.12-17.26-8.22a21.85,21.85,0,0,0-13,5.9,37.74,37.74,0,0,0-12.05,23c-1,7.86-12.25,17.36-20.22,17.2-4.55-.09-6-2.3-4-6.49,2.07-4.43,5.89-7.17,9.86-9.66a24.77,24.77,0,0,0,9.14-9.7c2.61-5.06,3.24-10.34-.34-15.11s-9-4.52-14.18-3.16c-7.55,2-13.18,6.94-18.35,12.47-7.1,7.59-12.49,16.41-18.53,25,.44-9.11-.92-18.73,8.09-25.1,1.74-1.22,3-3.09,4.47-4.7,10-11.18,19.86-22.5,26.06-36.42,2.46-5.53,4.33-11.17,3.6-17.39-.82-6.84-4.78-10.48-11.58-10.54-7.56-.07-13.42,3.44-18.35,8.79A61.62,61.62,0,0,0,5291.8,6960c-6.55,17.44-10.07,35.54-11.83,54-.16,1.66,0,3.37-1.31,4.68-5.33,5.34-10.95,10.35-18.45,12.39-8.71,2.38-16.4-1-17.69-8.21-1.55-8.72-.34-17,6.79-23.36,3.18-2.84,6.91-4.94,10.83-2.54,3.72,2.28,1.63,5.95.42,9-.86,2.19-.52,4,1.3,5.33,2,1.49,4.14,1.06,5.9-.61,4.25-4,6.69-8.88,5.34-14.78s-5.74-9.2-11.63-10.27c-10.59-1.93-20.34,3.23-26.72,14.41a14.48,14.48,0,0,1-7.24,6.48c-5.42,2.3-5.72,2.12-5.76-3.66-.07-11.91-8.62-19.11-20.43-17.22-13.67,2.19-25,16.48-26,32.76-.64,10.3,4.63,19.3,12.94,22.07a23.32,23.32,0,0,0,26.06-8.88,38.68,38.68,0,0,0,4.65-9.91c.62-1.86,8-6.22,9.41-5.39,2.25,1.32,1.12,3.88,1.36,5.86a22,22,0,0,0,20.86,19.43,35.23,35.23,0,0,0,25.44-8.49c2.27-1.93,3.4-2.89,4.1,1.32,1.23,7.29,5.78,8.84,11.89,4.48a31.26,31.26,0,0,0,4.47-4c4.26-4.5,7.62-9.66,10.95-14.86,4.43-6.89,9.18-13.58,16.64-17.59,2-1.07,4.69-2.63,6.36-.35s-.46,4.38-2.2,6-3.55,3-5.4,4.44a39.42,39.42,0,0,0-7.23,6.85c-3.63,4.58-4.76,9.63-2.38,15s7.28,7,12.72,7.31c8.73.56,15.1-4.37,21.48-9.25,1.43-1.09,2.31-2.72,4.23-.19,6.74,8.87,16.1,10.55,26.45,8.86,9.35-1.54,17-6.49,23.93-12.72,6.93,13.57,17,16.41,30.27,8.72a50.72,50.72,0,0,0,11.8-9.95c2.35-2.57,3.82-5.42.56-8.21-3-2.52-5.35-1.07-7.69,1.47-3.74,4.06-7.88,7.73-13.32,9.41-4.93,1.52-7.67.12-9.24-4.76-1.76-5.51-1.32-11.19-1.05-16.85.1-2.17,1.61-2.72,3.16-3.33,6.83-2.68,13.65-5.35,20.86-6.87,2.64-.56,5.66-.94,4.82-4.83-.81-3.74-3.66-3.94-6.66-3.25-4,.91-7.92,2-11.88,3,1.85-3.05,4.34-5.23,6.57-7.65C5439.09,6975.63,5446.81,6965.27,5449.19,6951.89Zm-139-1.48c2-3.17,5-7.28,9-5.54,4.71,2,2,6.81,1.1,10.25-1.78,6.7-5.8,12.31-9.94,17.77s-8.31,11.12-13.74,15.78C5298.7,6975,5302.66,6962,5310.14,6950.41Zm-101.81,69.81a23.84,23.84,0,0,1-4.49,7.11c-2.89,3.2-6.51,4.23-10.38,2.67-4.88-2-5-6.53-5-11a28.82,28.82,0,0,1,6-17.09,11.9,11.9,0,0,1,5.36-4.32c2.17-.81,4.65-1.65,6.5.37s.05,3.89-1.14,5.69c-3.12,4.75-2.8,7.74,1.77,11C5209.33,7016.43,5209.2,7018,5208.33,7020.22Zm152.38-6.34c-1.12-6.41,8.93-17.89,15.52-17.69,4.29.13,6.33,3.17,4.77,7.09s-14.48,12.25-18.81,12.07C5361.09,7015.31,5360.87,7014.82,5360.71,7013.88Zm55.69-26.06c1.48-11.83,5.05-22.77,12-32.35,2-2.77,4.8-6.7,8.27-4.83,3.2,1.71,1.13,6.06.17,9.07C5433.14,6971.27,5424.85,6979.6,5416.4,6987.82Z" transform="translate(-4752.74 -6659.5)"/><path class="cls-1" d="M5053.32,7005.27c-1.85-2.69-3.87-2.54-6.41-1.05-2.86,1.68-5.79,3.34-9.25,3.51-3,.15-4.46-1.13-3.6-4.23.71-2.57,1.73-5.06,2.32-7.65.78-3.4,1.91-7.21-2.1-9.34-3.81-2-7.39-1-10.5,2-5,4.78-8.62,10.56-12.14,16.42-1.43,2.38-2.84,4.77-4.26,7.15a145.86,145.86,0,0,1,3.54-19.87c.58-2.48.61-4.76-1.85-6.13s-4.89-.76-7,.9c-2.34,1.84-3.32,4.56-4.09,7.3-1.65,5.93-3.51,11.93-3.54,18.07,0,7.15-4.27,10.66-9.65,13.72a29.17,29.17,0,0,1-10.71,4c-5.1.64-10.37,1.45-14.82-2.29-1.13-1-2.53-2.09-2.13-3.7s2.16-1.31,3.38-1.63c7.12-1.9,14.13-4.08,19.87-9s8-13.52,5.1-19.95c-2.59-5.79-9.51-9-17.4-8-11.2,1.39-22.1,12.56-24.31,26.08-1.68,10.28-9.13,14.53-17.21,18.12-4.78,2.12-7.78.06-9.39-5.12-1.36-4.38-.91-8.91-1.11-13.39-.17-3.69,1.16-5.74,4.77-7,6.78-2.29,13.4-5.08,20.48-6.43,2.58-.5,4.46-1.57,3.78-4.67-.61-2.79-2.47-3.84-5.18-3.38-2.13.36-4.25.81-6.34,1.35-2.27.57-4.5,1.29-6.75,1.94l-.82-1.37c2.48-2.2,5.17-4.19,7.4-6.61,8.75-9.55,16.32-19.81,18.73-33,1-5.52,1.15-11-4.18-14.32-5.13-3.15-10.64-2.27-15.57,1a40.86,40.86,0,0,0-13,14.91c-6.82,12.57-11,26.07-13.45,40.08-.85,4.86-1.25,9.52-7.11,11.14-2.33.65-2.67,2.86-2.15,5s2,3.55,4.39,3c1.73-.41,3-.68,2.77,1.73-.15,1.43.82,3.67-2.21,3.16-2.51-.42-3.93,1.25-5.46,2.85-3.72,3.87-7.7,7.44-12.93,9.13s-7.92.2-9.55-4.91-1-10.22-1.05-15.38c0-2.66,1.18-3.85,3.46-4.69,6.87-2.56,13.67-5.31,20.89-6.8,2.47-.51,5.25-.93,4.63-4.53s-3.36-4.22-6.45-3.53c-4,.89-7.89,1.95-11.83,2.93,1.12-2.64,3-4.25,4.73-6a85.9,85.9,0,0,0,13.85-17.64c4.21-7.11,7.2-14.67,6.94-23.13-.19-5.87-3.85-9.49-9.7-10-5.39-.48-9.75,1.66-13.59,5.13a45.64,45.64,0,0,0-9.83,12.52,121.64,121.64,0,0,0-13.2,39.64c-.95,6.5-3.24,10.8-9.59,12.58-.66,3.6-.43,7.14,4.28,6.83,2.91-.19,3,.78,3,2.86a44.54,44.54,0,0,0,2.22,14.25c2.85,8.27,8.61,12,17.2,11.22a29.25,29.25,0,0,0,15.51-6.38c3.21-2.51,6.18-5.35,9.5-8.25.46,1,.85,1.71,1.11,2.47,3.57,10.17,9.82,13.77,20.46,11.7,6.25-1.22,11.47-4.47,16-8.75,1.94-1.83,2.8-1.86,4.46.46,4.49,6.25,11,9,18.54,9.28a39.4,39.4,0,0,0,21.9-5.85c2-1.15,3.6-2.95,6.23-3.38.62,4,1.56,7.86,6.49,8.17,5.15.32,7.32-3.08,8.66-7.39.45-1.43,1.06-2.81,1.63-4.19,4-9.68,8.09-19.27,14.1-28a24.39,24.39,0,0,1-.71,5.38c-1.88,8,1.57,12.44,9.89,12.69,7.3.23,13.15-3.08,18.61-7.41C5054.25,7009.91,5055.17,7008,5053.32,7005.27Zm-120.09-52a8.57,8.57,0,0,1,1.46-1.36c1.49-1.07,3.14-2.39,5-1.57,2.15,1,1.37,3.22,1.15,4.9-.88,6.79-4.11,12.68-8.1,18s-8.52,10-12.81,15C4921.08,6975.11,4924.86,6963.28,4933.23,6953.31Zm-44.77,1.27c1.89-2.44,4.49-5.66,7.74-4,3,1.54,1.08,5.21.39,7.77a42.2,42.2,0,0,1-8.16,15.82c-3.84,4.73-7.94,9.24-11.93,13.84l-1.21-.7C4877.3,6975.5,4881,6964.26,4888.46,6954.58Zm67.35,57.47c1.68-6.44,5.16-12.26,12.14-15.25,2.72-1.17,5.72-1.24,7.67,1.48s.62,5.49-1.39,7.64c-4.44,4.77-10.38,7-16.31,9.18C4955.39,7016,4955.67,7014.24,4955.81,7012.05Z" transform="translate(-4752.74 -6659.5)"/><path class="cls-1" d="M4852.83,7006l.09,0a.51.51,0,0,0,0-.13Z" transform="translate(-4752.74 -6659.5)"/><path class="cls-1" d="M5174.68,6927.6c-22.56-11.44-54.61-11.38-73,19.66-10.67,18-13.31,37.76-13.79,59.61.25,4.16.37,9.83,1,15.45,1.06,10.15,2.93,20.13,8.31,29.06,7.85,13,23.48,13.87,32.79,1.84,4.56-5.89,6.16-12.91,7.22-20,1.52-10.2,2.74-20.46,3.74-30.72.41-4.29,2.19-5.85,6.43-6.43,11.51-1.56,22.38-5.16,31.79-12.32C5199.57,6968.18,5197.62,6939.23,5174.68,6927.6Zm-5.06,49.34c-6.69,5.66-14.75,8.23-23.26,9.64-3.1.51-3.81-.65-3.16-3.59,1.49-6.73,4.7-12.8,7.08-19.18.91-2.41,3.71-5.26.45-7.6-3.07-2.22-6.73-1.76-9.94.15-2.36,1.4-3.66,3.74-4.64,6.31a123.56,123.56,0,0,0-5.2,19.8c-.74,3.69-2.31,4.25-5.46,2.6a60.13,60.13,0,0,0-7.33-3.15c-2.76-1-4,.14-4.15,3-.21,5.39,3,8.06,7.46,10,7,3.12,6.79,3.18,5.92,11-1.18,10.41-1.54,20.91-3.53,31.23a32.61,32.61,0,0,1-2,7.18c-2.8,6.27-9.4,6.78-13.37,1.11-2.56-3.63-3.56-7.87-4.36-12.14a127.24,127.24,0,0,1-2-25.85,115.65,115.65,0,0,1,8.06-46.44c9.34-23.39,27.42-30.77,51.88-24.42,8.61,2.23,14.58,8,16.25,17.18C5180,6963.17,5176.78,6970.89,5169.62,6976.94Z" transform="translate(-4752.74 -6659.5)"/><path class="cls-1" d="M4849.57,6954.88c-5.14-13.62-14.23-23.43-29.24-25.71-16.36-2.48-31.3,1.3-43.18,13.29-22.87,23.1-28.46,51.38-21.77,82.05,4.49,20.57,18.81,32.52,36.67,33.52,19.73,1.11,35.13-6.94,46.79-22.66,6.63-8.94,10.25-19.3,14.1-29.56l-.11.17c-.45-1.85.24-3.6.52-5.39C4855.86,6985.05,4855.16,6969.69,4849.57,6954.88Zm-10,26.5c-.47,17.62-3.56,34.45-14.87,48.75-5.41,6.83-12,11.95-20.76,13.84-13.32,2.88-24.23-2.08-30.46-14.18-7.63-14.82-6.45-30.32-2.94-45.85a62.41,62.41,0,0,1,19.15-33.23,33.71,33.71,0,0,1,21.61-9.21c9.14-.39,16.58,3,21.45,11.1C4838,6961.47,4839.69,6971.2,4839.53,6981.38Z" transform="translate(-4752.74 -6659.5)"/><path class="cls-2" d="M4754.27,7087.91" transform="translate(-4752.74 -6659.5)"/><path class="cls-2" d="M5451.24,7087.91" transform="translate(-4752.74 -6659.5)"/></g><g id="Layer_1" data-name="Layer 1"><path class="cls-1" d="M5167.24,6765c0-13.68,0-27.36,0-41a5.73,5.73,0,0,1,1.26-4,22.72,22.72,0,0,0,4.42-10.4c1-5.75-2.74-10.12-7.67-8.46-3.17,1.07-4.43.16-5.91-3.27-5.76-13.38-16.22-20-28.3-22.27-19.54-3.59-39.23-5-58,4.79a34.67,34.67,0,0,0-16.82,19.16c-.74,2-1.52,2.7-3.43,2-2.84-1.12-5.74-1.58-8,1.48s-1.5,6.29-.64,9.52a26.43,26.43,0,0,0,1.87,4.47c3,6.15,3.25,8.86,3.24,13.85-.05,25.13,0,126,0,151.13h0a3,3,0,0,1-3,3l-6-.05a3,3,0,0,1-2.95-3c0-28.15,0-130.45,0-152.57a10.05,10.05,0,0,0-1.18-4.95c-6.76-12.71-6.18-24.18,1.52-32.24a13,13,0,0,1,7.27-4.17c2.78-.44,4.41-2.1,6.12-4.53,8.92-12.71,20.95-19.69,34.67-21.79,18-2.75,36.1-3.8,53.81,2.37a52.14,52.14,0,0,1,27.42,21.82,3.1,3.1,0,0,0,1.4,1.34c15,4.61,20.58,16.56,13.9,32.11-2.82,6.59-3.34,12.89-3.32,19.75.06,22.33,0,120.41.06,142.74h0a3,3,0,0,1-3.05,3.12l-5.72,0h-.05a2.93,2.93,0,0,1-2.94-2.93C5167.21,6857.42,5167.24,6775.12,5167.24,6765Z" transform="translate(-4752.74 -6659.5)"/><path class="cls-1" d="M5149.37,6710.67a9.74,9.74,0,0,1-.17,1.53c-.74,3.06-1.6,6.28-5.42,6.5s-4.84-2.87-5.7-5.82a10.12,10.12,0,0,1-.38-2.62c-.1-4.87,2.62-9,5.85-9S5149.47,6705.35,5149.37,6710.67Z" transform="translate(-4752.74 -6659.5)"/><path class="cls-1" d="M5078.55,6710.26a11.5,11.5,0,0,1-.11,1.45c-.67,3.24-1.44,6.72-5.48,7s-5-3.16-5.85-6.25a9.19,9.19,0,0,1-.26-2.16c-.1-4.8,2.65-9,5.85-9S5078.63,6705.33,5078.55,6710.26Z" transform="translate(-4752.74 -6659.5)"/><path class="cls-1" d="M5122.92,6735c-3.35-2.39-7.27-3.16-11.22-3.44-5.17-.37-10.35-.24-15.27,1.8a11.05,11.05,0,0,0-3.93,2.34c-1.71,1.79-1.38,3.54,1,4.57a16.63,16.63,0,0,0,7.58,1.35c3.75-.17,6.56,2.75,7.44,5.68a7.09,7.09,0,0,1,6.82-5.63,22.16,22.16,0,0,0,6.69-.87c1.33-.45,2.67-1.06,2.86-2.64S5124,6735.78,5122.92,6735Z" transform="translate(-4752.74 -6659.5)"/><path class="cls-1" d="M5146.7,6731.67q-11.65-9.87-23.78-19.17c-9.27-7.13-20.8-7-30,.28q-11.79,9.31-23.34,18.93c-13.51,11.32-10.52,31.56,5.84,38.25,10.63,4.34,20.95,1.53,30.9-3,1.16-.53,2-.89,3.33-.2a43.6,43.6,0,0,0,18.55,5.14c13.17.18,21.9-5.57,25.67-15.3C5157.37,6747.62,5155,6738.69,5146.7,6731.67Zm-3.86,20.84c-1.74,4.86-6.44,7.83-12,7.76a34.23,34.23,0,0,1-21.74-8,3.08,3.08,0,0,1-.82-1.06,3.58,3.58,0,0,1-.25.42,4,4,0,0,1-.52.61,32.44,32.44,0,0,1-24.93,7.71c-4.88-.46-8-3.63-9.42-8.27s.28-8.15,3.95-11.07c6.39-5.07,12.7-10.23,19-15.4,10.36-8.46,13.47-8.52,23.75-.24,6.22,5,12.32,10.2,18.64,15.1C5142.78,6743.38,5144.73,6747.25,5142.84,6752.51Z" transform="translate(-4752.74 -6659.5)"/></g><g id="Layer_2" data-name="Layer 2"><path class="cls-1" d="M5136.57,6797h-56.9a17.06,17.06,0,0,0-17.06,17.07v25.6a45.52,45.52,0,1,0,91,0V6814A17.07,17.07,0,0,0,5136.57,6797Zm5.69,42.67a34.13,34.13,0,0,1-34.14,34.14h0a34.14,34.14,0,0,1-34.14-34.14V6814a5.69,5.69,0,0,1,5.69-5.69h56.9a5.68,5.68,0,0,1,5.69,5.69Z" transform="translate(-4752.74 -6659.5)"/><path class="cls-1" d="M5108.12,6840.13l-17.07-17.07-8.05,8,21.1,21.09a5.69,5.69,0,0,0,8,0h0l21.09-21.09-8.05-8Z" transform="translate(-4752.74 -6659.5)"/></g></svg>